<?xml version="1.0" encoding="UTF-8"?>
<svg width="600" height="400" viewBox="0 0 600 400" xmlns="http://www.w3.org/2000/svg">
    <!-- 背景 -->
    <rect width="600" height="400" fill="#f8f9fa"/>
    
    <!-- 装饰性网格 -->
    <pattern id="grid" width="40" height="40" patternUnits="userSpaceOnUse">
        <path d="M 40 0 L 0 0 0 40" fill="none" stroke="#e9ecef" stroke-width="0.5"/>
    </pattern>
    <rect width="600" height="400" fill="url(#grid)"/>
    
    <!-- 中心圆形 -->
    <circle cx="300" cy="200" r="80" fill="#409EFF" opacity="0.1"/>
    <circle cx="300" cy="200" r="60" fill="#409EFF" opacity="0.2"/>
    
    <!-- 连接线和节点 - 代表神经网络 -->
    <g stroke="#409EFF" stroke-width="2">
        <!-- 左侧节点 -->
        <circle cx="180" cy="140" r="8" fill="white"/>
        <circle cx="180" cy="200" r="8" fill="white"/>
        <circle cx="180" cy="260" r="8" fill="white"/>
        
        <!-- 中间节点 -->
        <circle cx="300" cy="120" r="8" fill="white"/>
        <circle cx="300" cy="180" r="8" fill="white"/>
        <circle cx="300" cy="240" r="8" fill="white"/>
        <circle cx="300" cy="300" r="8" fill="white"/>
        
        <!-- 右侧节点 -->
        <circle cx="420" cy="160" r="8" fill="white"/>
        <circle cx="420" cy="240" r="8" fill="white"/>
        
        <!-- 连接线 -->
        <g stroke-opacity="0.6">
            <!-- 左到中的连接 -->
            <line x1="188" y1="140" x2="292" y2="120"/>
            <line x1="188" y1="140" x2="292" y2="180"/>
            <line x1="188" y1="200" x2="292" y2="180"/>
            <line x1="188" y1="200" x2="292" y2="240"/>
            <line x1="188" y1="260" x2="292" y2="240"/>
            <line x1="188" y1="260" x2="292" y2="300"/>
            
            <!-- 中到右的连接 -->
            <line x1="308" y1="120" x2="412" y2="160"/>
            <line x1="308" y1="180" x2="412" y2="160"/>
            <line x1="308" y1="240" x2="412" y2="240"/>
            <line x1="308" y1="300" x2="412" y2="240"/>
        </g>
    </g>
    
    <!-- 装饰性元素 -->
    <g fill="none" stroke="#409EFF" stroke-width="1">
        <circle cx="100" cy="100" r="20" opacity="0.3"/>
        <circle cx="500" cy="300" r="25" opacity="0.3"/>
        <circle cx="450" cy="80" r="15" opacity="0.3"/>
        <circle cx="150" cy="320" r="18" opacity="0.3"/>
    </g>
    
    <!-- 动态效果 - 浮动圆点 -->
    <circle cx="300" cy="200" r="4" fill="#409EFF">
        <animate attributeName="r" values="4;6;4" dur="2s" repeatCount="indefinite"/>
        <animate attributeName="opacity" values="1;0.6;1" dur="2s" repeatCount="indefinite"/>
    </circle>
</svg> 